<?xml version="1.0" encoding="UTF-8"?>
<svg version="1.1" xmlns="http://www.w3.org/2000/svg" width="432" height="432">
    <path
        d="M0 0 C7.32414668 7.73104372 9.53745798 15.33564294 9.3984375 25.734375 C8.97503793 33.26643059 4.9234161 39.7015839 -0.3125 44.9375 C-4.54232916 48.16327881 -9.25554114 50.67934746 -13.87255859 53.29931641 C-17.56142408 55.41285884 -21.21482282 57.58729102 -24.875 59.75 C-26.33551495 60.61269493 -27.79642405 61.47472309 -29.2578125 62.3359375 C-29.88316895 62.70509277 -30.50852539 63.07424805 -31.15283203 63.45458984 C-32.3305083 64.13325684 -33.53426638 64.76713319 -34.75 65.375 C-34.75364563 66.32998383 -34.75729126 67.28496765 -34.76104736 68.26889038 C-34.79810885 77.30168837 -34.85600251 86.33414896 -34.93390274 95.36668968 C-34.97328616 100.00961016 -35.00551921 104.65234356 -35.02099609 109.29541016 C-35.03622317 113.78253201 -35.07077497 118.26913926 -35.11830902 122.75603104 C-35.13306073 124.46144748 -35.14103742 126.16693742 -35.14188385 127.87241745 C-35.15398514 140.03749451 -35.99143947 149.76045266 -44.3828125 159.1953125 C-45.75 160.375 -45.75 160.375 -47.75 160.375 C-47.75 161.035 -47.75 161.695 -47.75 162.375 C-56.04669313 166.81276609 -64.21756708 167.40647054 -73.4375 165.6875 C-78.69229202 163.6054126 -84.08635656 160.79624872 -87.75 156.375 C-87.75 155.385 -87.75 154.395 -87.75 153.375 C-88.41 153.375 -89.07 153.375 -89.75 153.375 C-94.76774491 142.49661955 -94.21460137 131.84911816 -94 120.125 C-93.97989628 118.20444579 -93.96165238 116.28387117 -93.9453125 114.36328125 C-93.90164217 109.70000875 -93.83283076 105.03773457 -93.75 100.375 C-94.68763184 100.85606201 -95.62526367 101.33712402 -96.59130859 101.83276367 C-103.73538053 105.32086867 -111.72109621 105.05786505 -119.4375 103.75 C-127.67393115 100.33110405 -133.69629304 94.28938025 -137.75 86.375 C-139.58518641 79.03425436 -139.69154523 70.44307313 -136.75 63.375 C-128.8080424 50.25037521 -113.50035533 44.0420847 -100.671875 36.5859375 C-95.05952752 33.31926345 -89.46814057 30.02322103 -83.91235352 26.66113281 C-81.85848391 25.43952447 -79.78418178 24.27122936 -77.6875 23.125 C-73.47410472 20.80616961 -69.32942872 18.38070997 -65.1875 15.9375 C-64.12801147 15.31439941 -64.12801147 15.31439941 -63.04711914 14.67871094 C-58.54236794 12.02788486 -54.04795401 9.36040665 -49.55859375 6.68359375 C-47.41419856 5.41383269 -45.26966811 4.14430003 -43.125 2.875 C-42.10591553 2.26342041 -41.08683105 1.65184082 -40.03686523 1.02172852 C-26.38042478 -7.03293881 -14.00657715 -8.27661377 0 0 Z "
        fill="#FE1E1F" transform="translate(280.75,135.625)" />
    <path
        d="M0 0 C0.09298497 9.99714941 0.16390896 19.99419468 0.20724869 29.99168968 C0.22805746 34.63475273 0.25625132 39.27751828 0.30175781 43.92041016 C0.34545647 48.40731322 0.36918749 52.89393147 0.37950897 57.38103104 C0.38685748 59.08653873 0.40120675 60.79203215 0.42292023 62.49741745 C0.5721137 74.70903671 -0.20545142 84.34498943 -8.6328125 93.8203125 C-10 95 -10 95 -12 95 C-12 95.66 -12 96.32 -12 97 C-20.29669313 101.43776609 -28.46756708 102.03147054 -37.6875 100.3125 C-42.94229202 98.2304126 -48.33635656 95.42124872 -52 91 C-52 90.01 -52 89.02 -52 88 C-52.66 88 -53.32 88 -54 88 C-58.42244345 78.03001439 -58.8991158 68.24062684 -59.16845703 57.47998047 C-59.25051386 54.60700869 -59.39581224 51.74137895 -59.54296875 48.87109375 C-59.60022205 47.0313663 -59.65374161 45.19151802 -59.703125 43.3515625 C-59.75374084 42.50147614 -59.80435669 41.65138977 -59.85650635 40.77554321 C-59.8910567 37.18496795 -59.84818719 34.93330772 -57.37051392 32.20698547 C-55.31662979 30.63220294 -53.23965241 29.29451961 -51 28 C-50.02788574 27.38890381 -49.05577148 26.77780762 -48.05419922 26.14819336 C-47.14686035 25.63393799 -46.23952148 25.11968262 -45.3046875 24.58984375 C-44.26900635 23.99824463 -43.2333252 23.40664551 -42.16625977 22.79711914 C-41.08014404 22.18344482 -39.99402832 21.56977051 -38.875 20.9375 C-36.56829242 19.62363171 -34.26218304 18.30877713 -31.95703125 16.9921875 C-31.37781418 16.66197098 -30.79859711 16.33175446 -30.201828 15.99153137 C-26.27824531 13.74898078 -22.38766568 11.45659588 -18.51171875 9.1328125 C-17.00472412 8.22994507 -17.00472412 8.22994507 -15.46728516 7.30883789 C-13.56414658 6.16468339 -11.66395736 5.01560536 -9.76708984 3.86108398 C-8.91711426 3.35134033 -8.06713867 2.84159668 -7.19140625 2.31640625 C-6.45092041 1.86724854 -5.71043457 1.41809082 -4.94750977 0.95532227 C-3 0 -3 0 0 0 Z "
        fill="#81B4FE" transform="translate(245,201)" />
    <path
        d="M0 0 C0.66 0.33 1.32 0.66 2 1 C1.59007812 1.60328125 1.18015625 2.2065625 0.7578125 2.828125 C0.21898437 3.62734375 -0.31984375 4.4265625 -0.875 5.25 C-1.40867188 6.03890625 -1.94234375 6.8278125 -2.4921875 7.640625 C-5.11885986 11.7507548 -6.24958071 14.4700904 -6.31884766 19.41113281 C-6.33871735 20.49195129 -6.35858704 21.57276978 -6.37905884 22.68634033 C-6.39638565 24.42714874 -6.39638565 24.42714874 -6.4140625 26.203125 C-6.43342865 27.39605164 -6.4527948 28.58897827 -6.4727478 29.8180542 C-6.53253267 33.62863004 -6.57892527 37.4392361 -6.625 41.25 C-6.66318072 43.83334652 -6.7022325 46.41668032 -6.7421875 49 C-6.83823344 55.33322046 -6.92328436 61.66651749 -7 68 C-6.01 68.495 -6.01 68.495 -5 69 C-13.30210323 75.85732163 -20.26502578 77.73156861 -31 77 C-38.26981623 75.76782776 -43.45489068 71.82025628 -48.3125 66.4375 C-53.78978429 58.52586713 -54.85249538 51.4209024 -53.76171875 41.92578125 C-52.28021927 34.3087789 -47.32429857 28.31202175 -41 24 C-33.67751966 19.50335344 -26.23763085 15.19896474 -18.8125 10.875 C-17.77158203 10.26785156 -16.73066406 9.66070312 -15.65820312 9.03515625 C-13.66003253 7.87050825 -11.66028098 6.70856691 -9.65869141 5.54980469 C-8.02236925 4.5959596 -6.39275735 3.63035086 -4.77490234 2.64550781 C-3.21635591 1.70643018 -1.61283794 0.84242956 0 0 Z "
        fill="#FE7676" transform="translate(196,163)" />
    <path
        d="M0 0 C1.52338836 29.68431035 1.52338836 29.68431035 -8.671875 42.0234375 C-14.23156118 47.4507502 -21.83963501 50.16217019 -29.5 50.5625 C-37.20696698 50.26775764 -44.57602836 46.42397164 -50 41 C-53.91856481 35.99294497 -53.91856481 35.99294497 -55 33 C-53.71329988 29.23996582 -51.78899462 27.97817863 -48.37109375 26.1171875 C-47.42645264 25.59455322 -46.48181152 25.07191895 -45.50854492 24.53344727 C-44.4951001 23.98615967 -43.48165527 23.43887207 -42.4375 22.875 C-40.33787025 21.71605931 -38.23891714 20.55589196 -36.140625 19.39453125 C-35.09970703 18.8217041 -34.05878906 18.24887695 -32.98632812 17.65869141 C-28.84689493 15.35953271 -24.76144903 12.97530439 -20.6875 10.5625 C-20.00276611 10.15902344 -19.31803223 9.75554687 -18.61254883 9.33984375 C-13.99530637 6.61211897 -9.41904664 3.82176809 -4.8828125 0.9609375 C-3 0 -3 0 0 0 Z "
        fill="#0664FC" transform="translate(245,201)" />
    <path
        d="M0 0 C1.23080509 2.46161017 1.12043977 4.06496993 1.11352539 6.81689453 C1.11344986 7.81778107 1.11337433 8.8186676 1.11329651 9.84988403 C1.10813522 10.93325043 1.10297394 12.01661682 1.09765625 13.1328125 C1.0962413 14.23978485 1.09482635 15.3467572 1.09336853 16.48727417 C1.08775772 20.03320993 1.07520337 23.57908323 1.0625 27.125 C1.05748639 29.52473867 1.05292325 31.92447833 1.04882812 34.32421875 C1.03778478 40.21616725 1.0210361 46.10807916 1 52 C-1.54719341 48.17920989 -2.10017812 45.26100352 -2.25292969 40.73803711 C-2.29737213 39.49170753 -2.29737213 39.49170753 -2.3427124 38.22019958 C-2.36883606 37.33155716 -2.39495972 36.44291473 -2.421875 35.52734375 C-2.44977112 34.60788467 -2.47766724 33.6884256 -2.50640869 32.74110413 C-2.56271328 30.80037722 -2.61634147 28.85957107 -2.66748047 26.91870117 C-2.74980545 23.94452858 -2.85328477 20.97153895 -2.95703125 17.99804688 C-3.00912544 16.11201497 -3.05994994 14.22594748 -3.109375 12.33984375 C-3.14359558 11.44917709 -3.17781616 10.55851044 -3.21307373 9.64085388 C-3.23009338 8.81311966 -3.24711304 7.98538544 -3.26464844 7.13256836 C-3.28605896 6.40516953 -3.30746948 5.67777069 -3.32952881 4.92832947 C-2.90702963 2.45595803 -1.88859146 1.58082603 0 0 Z "
        fill="#C5DBFD" transform="translate(189,232)" />
    <path
        d="M0 0 C0.66 0.33 1.32 0.66 2 1 C-2.296875 5.00390625 -2.296875 5.00390625 -4 6 C-6.203125 5.65234375 -6.203125 5.65234375 -8 5 C-6.71475739 4.13619741 -5.42157581 3.28419631 -4.125 2.4375 C-3.04605469 1.72400391 -3.04605469 1.72400391 -1.9453125 0.99609375 C-1.30335938 0.66738281 -0.66140625 0.33867187 0 0 Z "
        fill="#FDA8A7" transform="translate(165,181)" />
</svg>